# xmcd CD database file
#
# Track frame offsets:
#	150
#	10451
#	24333
#	36910
#	51147
#	66753
#	81709
#	94325
#	109860
#	124297
#	136026
#	150422
#	161243
#	174035
#	184718
#	198009
#	210941
#	225642
#
# Disc length: 3188 seconds
#
# Revision: 0
# Processed by: cddbd v1.5.1PL0 Copyright (c) Steve Scherf et al.
# Submitted via: CDex 1.51
#
DISCID=e70c7212
DTITLE=Teodoro and Sampaio - 100%
DYEAR=1900
DGENRE=Country
TTITLE0=Vou beber de novo
TTITLE1=Alo mulherada
TTITLE2=Mulher carente
TTITLE3=Se a casa cair
TTITLE4=a solteirona
TTITLE5=to querendo mais
TTITLE6=É mentira dela
TTITLE7=quando a saudade aperta
TTITLE8=A gosotosna
TTITLE9=roxo de amor
TTITLE10=tadinha da minha secretaria
TTITLE11=rodoviaria do amor
TTITLE12=pinga na veia
TTITLE13=psiu
TTITLE14=Tontão
TTITLE15=Filho da tuta
TTITLE16=vai bhover mulher
TTITLE17=mulher chorona
EXTD=
EXTT0=
EXTT1=
EXTT2=
EXTT3=
EXTT4=
EXTT5=
EXTT6=
EXTT7=
EXTT8=
EXTT9=
EXTT10=
EXTT11=
EXTT12=
EXTT13=
EXTT14=
EXTT15=
EXTT16=
EXTT17=
PLAYORDER=
